<svg xmlns="http://www.w3.org/2000/svg" width="61" height="61"><g data-name="Сгруппировать 2010" transform="translate(-1354 -5246)"><circle cx="30.5" cy="30.5" r="30.5" fill="#67c15e" data-name="Эллипс 153" transform="translate(1354 5246)"/><path fill="#fff" fill-rule="evenodd" d="M1384.634 5258a18.627 18.627 0 0 0-15.085 29.564l-2.322 6.925 7.164-2.289a18.636 18.636 0 1 0 10.254-34.2zm-5.2 9.468c-.361-.866-.635-.9-1.183-.921a10 10 0 0 0-.625-.022 2.7 2.7 0 0 0-1.906.668 5.95 5.95 0 0 0-1.91 4.537c0 2.674 1.95 5.26 2.213 5.622s3.8 5.928 9.279 8.2c4.283 1.775 5.554 1.611 6.529 1.4 1.424-.307 3.21-1.359 3.659-2.63a4.63 4.63 0 0 0 .318-2.586c-.131-.23-.493-.361-1.041-.636s-3.21-1.589-3.714-1.764a1.04 1.04 0 0 0-1.336.406 23 23 0 0 1-1.457 1.929 1.18 1.18 0 0 1-1.315.208 13.7 13.7 0 0 1-4.371-2.7 16.6 16.6 0 0 1-3.023-3.758c-.318-.548-.033-.866.219-1.162.274-.34.537-.581.811-.9a3.3 3.3 0 0 0 .6-.855 1.11 1.11 0 0 0-.077-1.008c-.129-.27-1.225-2.944-1.674-4.028z"/></g></svg>