<svg xmlns="http://www.w3.org/2000/svg" width="61" height="61"><g data-name="Сгруппировать 2013" transform="translate(-1734 -5246)"><circle cx="30.5" cy="30.5" r="30.5" fill="#676767" data-name="Эллипс 152" transform="translate(1734 5246)"/><g data-name="Сгруппировать 2009"><path fill="#fff" d="M1782.968 5265.92a4.86 4.86 0 0 0-1.008-2.133 4 4 0 0 0-.328-.363 4.88 4.88 0 0 0-3.44-1.426h-27.325a4.83 4.83 0 0 0-3.441 1.427 4 4 0 0 0-.331.367 4.8 4.8 0 0 0-1 2.13 4.7 4.7 0 0 0-.095.944v19.191a4.9 4.9 0 0 0 1.426 3.44q.163.162.335.308a4.88 4.88 0 0 0 3.106 1.118h27.324a4.84 4.84 0 0 0 3.11-1.126 4 4 0 0 0 .331-.3 4.8 4.8 0 0 0 1-1.437l.032-.076a4.8 4.8 0 0 0 .4-1.927v-19.191a5 5 0 0 0-.096-.946m-34.448-.815a2.3 2.3 0 0 1 .269-.317 2.92 2.92 0 0 1 2.078-.862h27.324a2.9 2.9 0 0 1 2.344 1.173l.209.281-14.585 12.71a2.48 2.48 0 0 1-3.259 0l-14.57-12.707zm-.584 21.121a1 1 0 0 1-.01-.169v-18.793l11.318 9.873-11.203 9.768zm31.713 2.379a2.9 2.9 0 0 1-1.458.387h-27.324a2.9 2.9 0 0 1-1.458-.387l-.458-.265 11.576-10.088 1.269 1.1a4.16 4.16 0 0 0 5.471 0l1.268-1.1 11.572 10.093zm1.482-2.553a1 1 0 0 1-.008.167l-.1.686-11.209-9.767 11.317-9.874z" data-name="Контур 6249"/></g></g></svg>