<svg xmlns="http://www.w3.org/2000/svg" xml:space="preserve" width="56.693" height="56.693"><path d="M52.837 15.065a20.1 20.1 0 0 1-5.805 1.591 10.13 10.13 0 0 0 4.444-5.592 20.2 20.2 0 0 1-6.418 2.454 10.1 10.1 0 0 0-7.377-3.192c-5.581 0-10.106 4.525-10.106 10.107 0 .791.089 1.562.262 2.303-8.4-.422-15.848-4.445-20.833-10.56a10.06 10.06 0 0 0-1.368 5.082c0 3.506 1.784 6.6 4.496 8.412a10.1 10.1 0 0 1-4.578-1.265l-.001.128c0 4.896 3.484 8.98 8.108 9.91a10.2 10.2 0 0 1-4.565.172c1.287 4.015 5.019 6.938 9.441 7.019a20.28 20.28 0 0 1-12.552 4.327q-1.223 0-2.411-.142a28.6 28.6 0 0 0 15.493 4.541c18.591 0 28.756-15.4 28.756-28.756q0-.657-.028-1.309a20.5 20.5 0 0 0 5.042-5.23"/></svg>