<svg xmlns="http://www.w3.org/2000/svg" width="23.141" height="23.123"><defs><clipPath id="a"><path fill="#1ea1b3" d="M0 0h23.141v23.123H0z"/></clipPath></defs><g clip-path="url(#a)"><path d="M15.472 15.84a5.815 5.815 0 0 1-9-7.119 5.8 5.8 0 0 1 10.868 2.62c.019.558-.011 1.118.013 1.676a1.431 1.431 0 0 0 2.854.146c.624-6.43-3.863-10.168-8.519-10.26a8.662 8.662 0 0 0-.35 17.32c.527.015 1.054 0 1.624 0v2.851a12.2 12.2 0 0 1-6.45-1.13A11.555 11.555 0 1 1 23.119 11.3a16 16 0 0 1-.024 2.055 4.34 4.34 0 0 1-7.253 2.825c-.115-.1-.222-.206-.37-.344m-1.024-4.3a2.886 2.886 0 1 0-2.9 2.911 2.9 2.9 0 0 0 2.9-2.911"/></g></svg>